<svg xmlns="http://www.w3.org/2000/svg" viewBox="0 0 129.86 18"><defs><style>.cls-1{fill:#a26e45;}</style></defs><g id="Capa_2" data-name="Capa 2"><g id="Capa_1-2" data-name="Capa 1"><path class="cls-1" d="M128.9,9.1A4.91,4.91,0,0,0,123.68,7a4.13,4.13,0,0,0-3.6,3l1,.17A3.2,3.2,0,0,1,123.86,8,3.92,3.92,0,0,1,128,9.6a4.73,4.73,0,0,1,0,5.25c-1.31,1.84-4,2.57-7.14,1.93a100.46,100.46,0,0,1-17.1-5.45c-7.4-2.9-13.79-5.41-20.6-4.14a25.35,25.35,0,0,0-14,8.05l.77.63a24.83,24.83,0,0,1,13.45-7.7C90,7,96.22,9.42,103.48,12.26a101.79,101.79,0,0,0,17.26,5.5,12.45,12.45,0,0,0,2.37.24,6.84,6.84,0,0,0,5.79-2.57A5.69,5.69,0,0,0,128.9,9.1Z"/><path class="cls-1" d="M73.16,10.35l.59-.18c.12,0,3-1,3.13-5.13l0-.73-.69.24A4.87,4.87,0,0,0,73.1,9.74ZM75.8,5.86a4.28,4.28,0,0,1-1.72,3A4,4,0,0,1,75.8,5.86Z"/><path class="cls-1" d="M46.62,7.19C39.8,5.92,33.41,8.43,26,11.33A100,100,0,0,1,8.92,16.78c-3.16.63-5.84-.08-7.15-1.93A4.75,4.75,0,0,1,1.82,9.6,3.89,3.89,0,0,1,6,8a3.22,3.22,0,0,1,2.79,2.21l1-.17A4.13,4.13,0,0,0,6.18,7,4.89,4.89,0,0,0,1,9.1a5.69,5.69,0,0,0,0,6.33A6.84,6.84,0,0,0,6.75,18a12.45,12.45,0,0,0,2.37-.24,101.79,101.79,0,0,0,17.26-5.5C33.63,9.41,39.9,7,46.44,8.17a25,25,0,0,1,13.45,7.7l.77-.63A25.35,25.35,0,0,0,46.62,7.19Z"/><path class="cls-1" d="M56.11,10.17l.58.18.07-.61a4.87,4.87,0,0,0-3.12-5.19L53,4.31,53,5C53.12,9.17,56,10.13,56.11,10.17Zm-.34-1.3a4.35,4.35,0,0,1-1.72-3A3.91,3.91,0,0,1,55.77,8.87Z"/><path class="cls-1" d="M68.9,5.9c2.2-.11,3.82-1,3.82-2.23s-1.82-2.24-4.2-2.24h0c-.06,0-.18,0-.33,0C67.8.59,66.46,0,64.75,0s-3,.59-3.44,1.43H61c-2.41,0-4.23,1-4.23,2.24s1.62,2.12,3.82,2.23a2.07,2.07,0,0,0,.77.89l-.05,0a38.07,38.07,0,0,1,1,6.43c.16,3.42,2.09,4.55,2.17,4.6l.22-.39.22.39c.08-.05,2-1.17,2.17-4.6A39.44,39.44,0,0,1,68,6.86,2.08,2.08,0,0,0,68.9,5.9Zm-.41-3.47c2,0,3.23.74,3.23,1.24s-1.1,1.14-2.84,1.23a2.5,2.5,0,0,0-1.34-1.19,2.13,2.13,0,0,1,1.53-.06l.33-.94a3.12,3.12,0,0,0-2.31.11l.15-.15A2.15,2.15,0,0,1,68.49,2.43ZM64.75,6.66c-2,0-3.23-.74-3.23-1.24s1-1.11,2.73-1.22V5.42h1V4.2C66.93,4.31,68,5,68,5.42S66.73,6.66,64.75,6.66Zm0-5.66a3.84,3.84,0,0,1,2.36.62,1.68,1.68,0,0,0-.58.34,2.31,2.31,0,0,0-.71,1.29,5,5,0,0,0-.57,0V2.08h-1V3.2a5.07,5.07,0,0,0-.56,0A2.31,2.31,0,0,0,63,2a1.68,1.68,0,0,0-.58-.34A3.83,3.83,0,0,1,64.75,1ZM60.63,4.9c-1.74-.09-2.84-.75-2.84-1.23S59,2.43,61.05,2.43a2.12,2.12,0,0,1,1.22.24l.14.15a3.1,3.1,0,0,0-2.3-.11l.33.94A2.13,2.13,0,0,1,62,3.71,2.5,2.5,0,0,0,60.63,4.9Zm4.05,11.85a4.9,4.9,0,0,1-1.39-3.56c0-.07,0-.14,0-.21a.94.94,0,0,1,.2.38l1-.1a4.54,4.54,0,0,1,.28-1.73A4.21,4.21,0,0,1,65,13.26l1,.1a.41.41,0,0,1,0-.08A4.86,4.86,0,0,1,64.68,16.75Zm1.51-5.12-.29.24a3.58,3.58,0,0,0-.79-1.67l-.36.34-.35-.34a3.58,3.58,0,0,0-.79,1.67,4.48,4.48,0,0,0-.45-.35h0a40.78,40.78,0,0,0-.69-4.21,7.54,7.54,0,0,0,2.28.34,7.67,7.67,0,0,0,2.13-.29A40.37,40.37,0,0,0,66.19,11.63Z"/></g></g></svg>