<svg xmlns="http://www.w3.org/2000/svg" viewBox="0 0 938.44 244.49"><defs><style>.cls-1{fill:#393130;}</style></defs><g id="Capa_2" data-name="Capa 2"><g id="Capa_1-2" data-name="Capa 1"><path class="cls-1" d="M123.7,139.38H81.36L92.19,125.7l-10-25.34H33L22.34,125.7l10.84,13.68H0L10.84,125.7,62,2.67l50.85,123ZM77.52,88.86,58.18,40.35,37.84,88.86Z"/><path class="cls-1" d="M236.24,139.38l10.83-13.68V45l-38.51,66.36L169.72,44.51V125.7l11,13.68H147.88l10.83-13.68V23.84l-8.83-9.17L167.38,0l46.85,81.69,32.84-57.18V19.67L236.24,6h41.84L267.25,19.67v106l10.83,13.68Z"/><path class="cls-1" d="M426.79,139.38H384.45l10.83-13.68-10-25.34H336.1L325.43,125.7l10.83,13.68H303.09l10.83-13.68,51.19-123L416,125.7ZM380.61,88.86,361.27,40.35,340.93,88.86Z"/><path class="cls-1" d="M531.32,105.2a36.72,36.72,0,0,1-3.08,15.09,37.33,37.33,0,0,1-8.34,11.92A38.89,38.89,0,0,1,493,142.88a82.68,82.68,0,0,1-21.84-3,70.58,70.58,0,0,1-20.17-9L468.8,115.7,502.48,135a39,39,0,0,0,7.67-10.59,24.4,24.4,0,0,0,2.33-10.25,27,27,0,0,0-3.91-14.5,60.55,60.55,0,0,0-9.67-11.84,124.14,124.14,0,0,0-12.59-10.5,125.54,125.54,0,0,1-12.59-10.51A60.13,60.13,0,0,1,464.05,55a27.37,27.37,0,0,1-3.92-14.67A43.24,43.24,0,0,1,463,23.92a32.47,32.47,0,0,1,7.58-11.42,30.05,30.05,0,0,1,11.09-6.66A40.78,40.78,0,0,1,495,3.67a54.47,54.47,0,0,1,17.42,3,65,65,0,0,1,16.92,8.67L513,29.68,481.33,12.17q-5.19,9.17-5.19,17.17a24.25,24.25,0,0,0,4.1,13.92,56.8,56.8,0,0,0,10.2,11.34,163.52,163.52,0,0,0,13.29,10.25A110.61,110.61,0,0,1,517,75.69a57.27,57.27,0,0,1,10.2,13A32.72,32.72,0,0,1,531.32,105.2Z"/><path class="cls-1" d="M665.19,19.67v73a49.4,49.4,0,0,1-3.66,18.93,50,50,0,0,1-10,15.58,47.05,47.05,0,0,1-14.75,10.51,44.64,44.64,0,0,1-36.18,0,47.05,47.05,0,0,1-14.75-10.51,50,50,0,0,1-13.67-34.67V19.67L561.33,6h41.85L592.34,19.67V82.19A45,45,0,0,0,605.59,115,40.76,40.76,0,0,0,619.18,124,40.47,40.47,0,0,0,645,125.7v-106L634.18,6H676Z"/><path class="cls-1" d="M761.55,81.86V125.7l10.67,13.68H730.54l10.84-13.68V84.53L709.87,26l-11.34-8.84,19.34-17,37.68,70,27.18-50.52L772.06,6h30.17Z"/><path class="cls-1" d="M938.44,72.69A79.88,79.88,0,0,1,934,99.53a71.31,71.31,0,0,1-12.09,21.84,57.81,57.81,0,0,1-18,14.75,46.76,46.76,0,0,1-22,5.42A46.26,46.26,0,0,1,860,136.12a58.09,58.09,0,0,1-17.92-14.75A71.31,71.31,0,0,1,830,99.53a79.88,79.88,0,0,1-4.42-26.84A80.09,80.09,0,0,1,830,45.93,71.15,71.15,0,0,1,842.08,24,58.26,58.26,0,0,1,860,9.25a46.26,46.26,0,0,1,21.92-5.42,46.76,46.76,0,0,1,22,5.42,58,58,0,0,1,18,14.76A71.15,71.15,0,0,1,934,45.93,80.09,80.09,0,0,1,938.44,72.69Zm-20,8.83a93.13,93.13,0,0,0-2.83-23,56.26,56.26,0,0,0-9.17-19.76A47.17,47.17,0,0,0,890,24.92q-10.1-5.25-24.59-5.25c-1.89,0-3.75.09-5.59.25s-3.86.42-6.08.75a101,101,0,0,0-6.42,20.68,113.64,113.64,0,0,0-2.25,22.5,93.15,93.15,0,0,0,2.83,23,57.06,57.06,0,0,0,9.17,19.84,45.94,45.94,0,0,0,16.42,13.84q10.1,5.16,24.59,5.16c1.89,0,3.76-.08,5.59-.25s3.86-.41,6.09-.75A101.29,101.29,0,0,0,916.18,104,113.67,113.67,0,0,0,918.43,81.52Z"/><path class="cls-1" d="M165.16,207.23V186.88h3.5v17.57h4.76v2.78Z"/><path class="cls-1" d="M179.77,207.23l3.83-20.35H189l3.89,20.35h-3.62l-.75-4.43H184l-.75,4.43Zm4.87-21.94L184,184l4.81-3.29,1.14,2.27Zm-.39,14.85h3.93l-1.86-10.72h-.15Z"/><path class="cls-1" d="M202.14,206.83a3.26,3.26,0,0,1-1.52-2.23,24.24,24.24,0,0,1-.38-5.12v-5.09a22,22,0,0,1,.38-4.83,3.34,3.34,0,0,1,1.55-2.23,7.5,7.5,0,0,1,3.6-.66h.3a8.64,8.64,0,0,1,3.34.5,2.77,2.77,0,0,1,1.55,1.72,11.49,11.49,0,0,1,.44,3.65v1h-3.35v-.89a9.56,9.56,0,0,0-.15-2,1.39,1.39,0,0,0-.54-.9,2.23,2.23,0,0,0-1.2-.26h-.3a2.43,2.43,0,0,0-1.36.29A1.77,1.77,0,0,0,204,191a20.79,20.79,0,0,0-.15,3v5.87a26.23,26.23,0,0,0,.13,3.23,1.73,1.73,0,0,0,.54,1.21,2.43,2.43,0,0,0,1.36.29h.3a2.55,2.55,0,0,0,1.23-.23,1.34,1.34,0,0,0,.55-.91,10.45,10.45,0,0,0,.17-2.21v-.87h3.35v1a13.14,13.14,0,0,1-.44,3.93,2.72,2.72,0,0,1-1.55,1.75,9.63,9.63,0,0,1-3.4.46h-.3A8,8,0,0,1,202.14,206.83Z"/><path class="cls-1" d="M221.6,207.23V189.66H218v-2.78h10.62v2.78H225.1v17.57Z"/><path class="cls-1" d="M236.36,207.23V186.88h8.82v2.75h-5.32v5.78h4.88V198h-4.88v6.41h5.5v2.78Z"/><path class="cls-1" d="M255.13,206.83a3.29,3.29,0,0,1-1.55-2.23,23.15,23.15,0,0,1-.41-5.12v-5.09a21.25,21.25,0,0,1,.41-4.85,3.34,3.34,0,0,1,1.57-2.23,7.91,7.91,0,0,1,3.62-.64h.48a7.94,7.94,0,0,1,3.62.64,3.34,3.34,0,0,1,1.57,2.23,21.37,21.37,0,0,1,.4,4.85v5.09a23.29,23.29,0,0,1-.4,5.12,3.27,3.27,0,0,1-1.56,2.23,8.21,8.21,0,0,1-3.63.61h-.48A8.26,8.26,0,0,1,255.13,206.83Zm4.12-2.26a2.13,2.13,0,0,0,1.32-.33,2.08,2.08,0,0,0,.56-1.3,22.65,22.65,0,0,0,.15-3.1V194a19.9,19.9,0,0,0-.15-2.91,2,2,0,0,0-.56-1.25,2.13,2.13,0,0,0-1.32-.33h-.48a2.19,2.19,0,0,0-1.33.33,1.91,1.91,0,0,0-.59,1.25,19.9,19.9,0,0,0-.15,2.91v5.87a22.65,22.65,0,0,0,.15,3.1,2,2,0,0,0,.57,1.3,2.19,2.19,0,0,0,1.35.33Z"/><path class="cls-1" d="M275,207a2.44,2.44,0,0,1-1.43-1.56,11.58,11.58,0,0,1-.38-3.43v-1.16h3.15v.89a8.56,8.56,0,0,0,.14,1.9,1.2,1.2,0,0,0,.56.8,3,3,0,0,0,1.3.21h.36a3.21,3.21,0,0,0,1.29-.2,1.08,1.08,0,0,0,.57-.75,7.27,7.27,0,0,0,.15-1.75v-.8a3.65,3.65,0,0,0-.24-1.5,1.86,1.86,0,0,0-.92-.84,11.48,11.48,0,0,0-2.11-.69,8.89,8.89,0,0,1-2.59-1.07,3.39,3.39,0,0,1-1.28-1.71,9.09,9.09,0,0,1-.38-2.9v-.66a8.28,8.28,0,0,1,.45-3,2.88,2.88,0,0,1,1.47-1.59,6.79,6.79,0,0,1,2.84-.48h.6a8.55,8.55,0,0,1,3.2.45,2.47,2.47,0,0,1,1.42,1.51,10.16,10.16,0,0,1,.38,3.19v1h-3.08V192a6.85,6.85,0,0,0-.15-1.59,1.22,1.22,0,0,0-.53-.76,2.2,2.2,0,0,0-1.12-.23h-.42a2.53,2.53,0,0,0-1.11.2,1,1,0,0,0-.53.72,5.46,5.46,0,0,0-.16,1.54v.57a3.54,3.54,0,0,0,.22,1.42,1.74,1.74,0,0,0,.8.84,8,8,0,0,0,1.89.67,10.24,10.24,0,0,1,2.86,1.09,3.36,3.36,0,0,1,1.36,1.63,8.26,8.26,0,0,1,.39,2.85v.74a11.42,11.42,0,0,1-.44,3.64A2.74,2.74,0,0,1,282,207a8.31,8.31,0,0,1-3.14.46h-.6A9.59,9.59,0,0,1,275,207Z"/><path class="cls-1" d="M302.73,207.23l3.83-20.35H312l3.89,20.35h-3.62l-.75-4.43h-4.55l-.75,4.43Zm4.49-7.09h3.92l-1.86-10.72h-.15Z"/><path class="cls-1" d="M323.53,186.88h4.94a12,12,0,0,1,3.72.42,2.56,2.56,0,0,1,1.62,1.57,11,11,0,0,1,.43,3.61v.77a11.92,11.92,0,0,1-.22,2.59,2.88,2.88,0,0,1-.75,1.48,2.73,2.73,0,0,1-1.39.69v.09a2.79,2.79,0,0,1,1.51.74,3,3,0,0,1,.67,1.61,21.38,21.38,0,0,1,.18,3.22v3.56H330.8v-3.44a14.22,14.22,0,0,0-.18-2.71A1.51,1.51,0,0,0,330,200a3.63,3.63,0,0,0-1.63-.27h-1.38v7.51h-3.41Zm5.32,10.24a2.32,2.32,0,0,0,1.22-.27,1.43,1.43,0,0,0,.6-.89,7.69,7.69,0,0,0,.16-1.75v-1.58a7.69,7.69,0,0,0-.19-2,1.24,1.24,0,0,0-.74-.83,5.18,5.18,0,0,0-1.73-.21h-1.23v7.52Z"/><path class="cls-1" d="M345.34,207.23V189.66h-3.56v-2.78h10.63v2.78h-3.56v17.57Z"/><path class="cls-1" d="M360.1,207.23V186.88h8.83v2.75H363.6v5.78h4.88V198H363.6v6.41h5.51v2.78Z"/><path class="cls-1" d="M378.67,207a2.43,2.43,0,0,1-1.44-1.56,11.65,11.65,0,0,1-.37-3.43v-1.16H380v.89a8.41,8.41,0,0,0,.15,1.9,1.16,1.16,0,0,0,.55.8,3,3,0,0,0,1.3.21h.36a3.21,3.21,0,0,0,1.29-.2,1.08,1.08,0,0,0,.57-.75,7.27,7.27,0,0,0,.15-1.75v-.8a3.65,3.65,0,0,0-.24-1.5,1.86,1.86,0,0,0-.92-.84,11.32,11.32,0,0,0-2.1-.69,8.77,8.77,0,0,1-2.59-1.07,3.36,3.36,0,0,1-1.29-1.71,9.12,9.12,0,0,1-.37-2.9v-.66a8.52,8.52,0,0,1,.44-3,2.88,2.88,0,0,1,1.47-1.59,6.82,6.82,0,0,1,2.84-.48h.6a8.61,8.61,0,0,1,3.21.45,2.49,2.49,0,0,1,1.42,1.51,10.22,10.22,0,0,1,.37,3.19v1h-3.08V192a6.34,6.34,0,0,0-.15-1.59,1.22,1.22,0,0,0-.53-.76,2.2,2.2,0,0,0-1.12-.23h-.42a2.48,2.48,0,0,0-1.1.2,1.08,1.08,0,0,0-.54.72,6,6,0,0,0-.15,1.54v.57a3.76,3.76,0,0,0,.21,1.42,1.81,1.81,0,0,0,.81.84,7.76,7.76,0,0,0,1.88.67,10.24,10.24,0,0,1,2.86,1.09,3.31,3.31,0,0,1,1.36,1.63,8.26,8.26,0,0,1,.39,2.85v.74a11.42,11.42,0,0,1-.44,3.64,2.71,2.71,0,0,1-1.48,1.68,8.27,8.27,0,0,1-3.14.46H382A9.52,9.52,0,0,1,378.67,207Z"/><path class="cls-1" d="M394.84,207.23l3.83-20.35h5.39L408,207.23h-3.62l-.75-4.43H399l-.75,4.43Zm4.49-7.09h3.92l-1.86-10.72h-.15Z"/><path class="cls-1" d="M415.64,207.23V186.88h5.15l4.55,17.18h.11l-.21-17.18h3.12v20.35h-5L418.75,190h-.15l.15,17.27Z"/><path class="cls-1" d="M436.05,207.23l3.83-20.35h5.39l3.89,20.35h-3.63l-.74-4.43h-4.55l-.75,4.43Zm4.49-7.09h3.92l-1.86-10.72h-.15Z"/><path class="cls-1" d="M456.85,207.23V186.88h3.5v17.57h4.76v2.78Z"/><path class="cls-1" d="M472.8,207.23V186.88h8.82v2.75H476.3v5.78h4.88V198H476.3v6.41h5.5v2.78Z"/><path class="cls-1" d="M491.37,207a2.43,2.43,0,0,1-1.44-1.56,11.65,11.65,0,0,1-.37-3.43v-1.16h3.14v.89a8.41,8.41,0,0,0,.15,1.9,1.16,1.16,0,0,0,.55.8,3,3,0,0,0,1.3.21h.36a3.21,3.21,0,0,0,1.29-.2,1.08,1.08,0,0,0,.57-.75,7.27,7.27,0,0,0,.15-1.75v-.8a3.65,3.65,0,0,0-.24-1.5,1.86,1.86,0,0,0-.92-.84,11.22,11.22,0,0,0-2.11-.69,8.7,8.7,0,0,1-2.58-1.07,3.36,3.36,0,0,1-1.29-1.71,9.12,9.12,0,0,1-.37-2.9v-.66a8.31,8.31,0,0,1,.44-3,2.88,2.88,0,0,1,1.47-1.59,6.82,6.82,0,0,1,2.84-.48h.6a8.52,8.52,0,0,1,3.2.45,2.48,2.48,0,0,1,1.43,1.51,10.53,10.53,0,0,1,.37,3.19v1h-3.08V192a6.34,6.34,0,0,0-.15-1.59,1.22,1.22,0,0,0-.53-.76,2.2,2.2,0,0,0-1.12-.23h-.42a2.45,2.45,0,0,0-1.1.2,1.08,1.08,0,0,0-.54.72,6,6,0,0,0-.15,1.54v.57a3.76,3.76,0,0,0,.21,1.42,1.83,1.83,0,0,0,.8.84,8,8,0,0,0,1.89.67,10.24,10.24,0,0,1,2.86,1.09,3.31,3.31,0,0,1,1.36,1.63,8.26,8.26,0,0,1,.39,2.85v.74a11.42,11.42,0,0,1-.44,3.64,2.74,2.74,0,0,1-1.48,1.68,8.31,8.31,0,0,1-3.14.46h-.6A9.52,9.52,0,0,1,491.37,207Z"/><path class="cls-1" d="M520.47,186.88h5.42a10.47,10.47,0,0,1,3.87.54,3.24,3.24,0,0,1,1.8,2.11,16.94,16.94,0,0,1,.52,4.86v5.09a20.24,20.24,0,0,1-.45,5,3.13,3.13,0,0,1-1.72,2.15,10.49,10.49,0,0,1-4,.57h-5.42Zm5.42,17.6a3.58,3.58,0,0,0,1.73-.32,1.75,1.75,0,0,0,.73-1.24,16.5,16.5,0,0,0,.2-3V194a13.78,13.78,0,0,0-.21-2.84,1.75,1.75,0,0,0-.76-1.21,3.54,3.54,0,0,0-1.69-.32H524v14.88Z"/><path class="cls-1" d="M540.85,207.23V186.88h8.83v2.75h-5.33v5.78h4.88V198h-4.88v6.41h5.51v2.78Z"/><path class="cls-1" d="M569.58,207.23V186.88h8.82v2.75h-5.32v5.78H578V198h-4.88v6.41h5.5v2.78Z"/><path class="cls-1" d="M588.14,207a2.44,2.44,0,0,1-1.43-1.56,11.58,11.58,0,0,1-.38-3.43v-1.16h3.15v.89a8.41,8.41,0,0,0,.15,1.9,1.16,1.16,0,0,0,.55.8,3,3,0,0,0,1.3.21h.36a3.21,3.21,0,0,0,1.29-.2,1.08,1.08,0,0,0,.57-.75,7.27,7.27,0,0,0,.15-1.75v-.8a3.65,3.65,0,0,0-.24-1.5,1.86,1.86,0,0,0-.92-.84,11.48,11.48,0,0,0-2.11-.69,8.89,8.89,0,0,1-2.59-1.07,3.39,3.39,0,0,1-1.28-1.71,9.09,9.09,0,0,1-.38-2.9v-.66a8.28,8.28,0,0,1,.45-3,2.88,2.88,0,0,1,1.47-1.59,6.79,6.79,0,0,1,2.84-.48h.6a8.55,8.55,0,0,1,3.2.45,2.47,2.47,0,0,1,1.42,1.51,10.16,10.16,0,0,1,.38,3.19v1h-3.08V192a6.34,6.34,0,0,0-.15-1.59,1.22,1.22,0,0,0-.53-.76,2.2,2.2,0,0,0-1.12-.23h-.42a2.53,2.53,0,0,0-1.11.2,1,1,0,0,0-.53.72,6,6,0,0,0-.15,1.54v.57a3.76,3.76,0,0,0,.21,1.42,1.74,1.74,0,0,0,.8.84,8,8,0,0,0,1.89.67,10.24,10.24,0,0,1,2.86,1.09,3.36,3.36,0,0,1,1.36,1.63,8.26,8.26,0,0,1,.39,2.85v.74a11.42,11.42,0,0,1-.44,3.64,2.74,2.74,0,0,1-1.48,1.68,8.31,8.31,0,0,1-3.14.46h-.6A9.59,9.59,0,0,1,588.14,207Z"/><path class="cls-1" d="M605.67,186.88h4.66a13,13,0,0,1,3.88.43,2.73,2.73,0,0,1,1.72,1.71,12.2,12.2,0,0,1,.48,4v1.37a11.07,11.07,0,0,1-.54,4,3,3,0,0,1-1.72,1.77,10.45,10.45,0,0,1-3.52.45h-1.55v6.64h-3.41Zm4.75,11a4.08,4.08,0,0,0,1.67-.25,1.4,1.4,0,0,0,.71-.91,7.91,7.91,0,0,0,.2-2.07v-1.79a7.56,7.56,0,0,0-.21-2.1,1.34,1.34,0,0,0-.73-.88,4.54,4.54,0,0,0-1.67-.23h-1.31v8.23Z"/><path class="cls-1" d="M624.82,207.23V186.88h8.83v2.75h-5.33v5.78h4.88V198h-4.88v6.41h5.51v2.78Z"/><path class="cls-1" d="M643.54,206.83A3.22,3.22,0,0,1,642,204.6a24.09,24.09,0,0,1-.39-5.12v-5.09a21.83,21.83,0,0,1,.39-4.83,3.3,3.3,0,0,1,1.54-2.23,7.5,7.5,0,0,1,3.6-.66h.3a8.64,8.64,0,0,1,3.34.5,2.74,2.74,0,0,1,1.55,1.72,11.49,11.49,0,0,1,.44,3.65v1h-3.35v-.89a9.56,9.56,0,0,0-.15-2,1.39,1.39,0,0,0-.54-.9,2.23,2.23,0,0,0-1.2-.26h-.3a2.43,2.43,0,0,0-1.36.29,1.77,1.77,0,0,0-.55,1.2,20.79,20.79,0,0,0-.15,3v5.87a26.23,26.23,0,0,0,.13,3.23,1.73,1.73,0,0,0,.54,1.21,2.43,2.43,0,0,0,1.36.29h.3a2.55,2.55,0,0,0,1.23-.23,1.34,1.34,0,0,0,.55-.91,10.45,10.45,0,0,0,.17-2.21v-.87h3.35v1a13.14,13.14,0,0,1-.44,3.93,2.7,2.7,0,0,1-1.55,1.75,9.63,9.63,0,0,1-3.4.46h-.3A8,8,0,0,1,643.54,206.83Z"/><path class="cls-1" d="M661.3,207.23V186.88h3.5v20.35Z"/><path class="cls-1" d="M672.52,207.23l3.83-20.35h5.39l3.89,20.35H682l-.75-4.43h-4.55l-.75,4.43Zm4.49-7.09h3.92l-1.86-10.72h-.15Z"/><path class="cls-1" d="M693.32,207.23V186.88h3.5v17.57h4.76v2.78Z"/><path class="cls-1" d="M709.27,207.23V186.88h3.5v20.35Z"/><path class="cls-1" d="M721.84,186.88h5.41a10.5,10.5,0,0,1,3.88.54,3.23,3.23,0,0,1,1.79,2.11,16.51,16.51,0,0,1,.53,4.86v5.09a20.24,20.24,0,0,1-.45,5,3.13,3.13,0,0,1-1.72,2.15,10.51,10.51,0,0,1-4,.57h-5.41Zm5.41,17.6a3.6,3.6,0,0,0,1.74-.32,1.75,1.75,0,0,0,.73-1.24,16.5,16.5,0,0,0,.2-3V194a13.78,13.78,0,0,0-.21-2.84,1.76,1.76,0,0,0-.77-1.21,3.51,3.51,0,0,0-1.69-.32h-1.91v14.88Z"/><path class="cls-1" d="M740.87,207.23l3.83-20.35h5.39L754,207.23h-3.62l-.75-4.43h-4.55l-.75,4.43Zm4.49-7.09h3.92l-1.86-10.72h-.15Z"/><path class="cls-1" d="M761.67,186.88h5.41a10.5,10.5,0,0,1,3.88.54,3.2,3.2,0,0,1,1.79,2.11,16.51,16.51,0,0,1,.53,4.86v5.09a20.24,20.24,0,0,1-.45,5,3.13,3.13,0,0,1-1.72,2.15,10.51,10.51,0,0,1-4,.57h-5.41Zm5.41,17.6a3.6,3.6,0,0,0,1.74-.32,1.75,1.75,0,0,0,.73-1.24,16.5,16.5,0,0,0,.2-3V194a13.78,13.78,0,0,0-.21-2.84,1.76,1.76,0,0,0-.77-1.21,3.48,3.48,0,0,0-1.69-.32h-1.91v14.88Z"/><path class="cls-1" d="M261.51,240.42V234l-4.1-13.89h3.35l2.54,10.48h.06l2.46-10.48h3.38L265,234v6.46Z"/><path class="cls-1" d="M274.58,240.42l3.83-20.35h5.39l3.89,20.35h-3.62l-.75-4.43h-4.55l-.74,4.43Zm4.49-7.09H283l-1.85-10.71H281Z"/><path class="cls-1" d="M296.73,240.42V222.86h-3.56v-2.79h10.62v2.79h-3.56v17.56Z"/><path class="cls-1" d="M309.15,240.42,313,220.07h5.39l3.89,20.35h-3.62l-.75-4.43h-4.55l-.75,4.43Zm4.49-7.09h3.92l-1.86-10.71h-.15Z"/><path class="cls-1" d="M331.37,240.2a2.43,2.43,0,0,1-1.44-1.56,11.65,11.65,0,0,1-.37-3.43v-1.16h3.14v.9a8.53,8.53,0,0,0,.15,1.9,1.14,1.14,0,0,0,.55.79,3,3,0,0,0,1.3.21h.36a3.21,3.21,0,0,0,1.29-.2,1.06,1.06,0,0,0,.57-.74,7.38,7.38,0,0,0,.15-1.75v-.81a3.65,3.65,0,0,0-.24-1.5,1.84,1.84,0,0,0-.91-.84,11.75,11.75,0,0,0-2.11-.69,8.27,8.27,0,0,1-2.59-1.07,3.36,3.36,0,0,1-1.29-1.71,9.08,9.08,0,0,1-.37-2.9V225a8.31,8.31,0,0,1,.45-3,2.86,2.86,0,0,1,1.46-1.59,6.84,6.84,0,0,1,2.85-.48h.6a8.59,8.59,0,0,1,3.2.45,2.49,2.49,0,0,1,1.42,1.51,10.22,10.22,0,0,1,.37,3.19v1h-3.08v-.84a6.34,6.34,0,0,0-.15-1.59,1.21,1.21,0,0,0-.52-.76,2.26,2.26,0,0,0-1.13-.22h-.41a2.55,2.55,0,0,0-1.11.19,1.08,1.08,0,0,0-.54.72,6,6,0,0,0-.15,1.54v.57A3.76,3.76,0,0,0,333,227a1.81,1.81,0,0,0,.81.84,8.1,8.1,0,0,0,1.88.67,10.56,10.56,0,0,1,2.86,1.09,3.31,3.31,0,0,1,1.36,1.63,8.26,8.26,0,0,1,.39,2.85v.75a11.45,11.45,0,0,1-.43,3.63,2.76,2.76,0,0,1-1.48,1.68,8.17,8.17,0,0,1-3.15.46h-.59A9.35,9.35,0,0,1,331.37,240.2Z"/><path class="cls-1" d="M351.13,240.42V222.86h-3.56v-2.79H358.2v2.79h-3.56v17.56Z"/><path class="cls-1" d="M367,240a3.24,3.24,0,0,1-1.56-2.23,23.87,23.87,0,0,1-.4-5.12v-5.09a21.81,21.81,0,0,1,.4-4.84,3.33,3.33,0,0,1,1.58-2.23,7.73,7.73,0,0,1,3.62-.65h.48a7.79,7.79,0,0,1,3.62.65,3.35,3.35,0,0,1,1.57,2.23,21.21,21.21,0,0,1,.4,4.84v5.09a23.23,23.23,0,0,1-.4,5.12A3.24,3.24,0,0,1,374.7,240a8.1,8.1,0,0,1-3.63.61h-.48A8.12,8.12,0,0,1,367,240Zm4.12-2.26a2.12,2.12,0,0,0,1.31-.33,2,2,0,0,0,.57-1.3,22.65,22.65,0,0,0,.15-3.1v-5.86a20.06,20.06,0,0,0-.15-2.92,1.92,1.92,0,0,0-.57-1.24,2.12,2.12,0,0,0-1.31-.33h-.48a2.22,2.22,0,0,0-1.34.33,1.92,1.92,0,0,0-.58,1.24,20.06,20.06,0,0,0-.15,2.92V233a22.65,22.65,0,0,0,.15,3.1,2,2,0,0,0,.57,1.3,2.19,2.19,0,0,0,1.35.33Z"/><path class="cls-1" d="M384.71,242.79a2.37,2.37,0,0,0,1-.17,1,1,0,0,0,.5-.54,3.17,3.17,0,0,0,.15-1.12v-.54h-1.17v-3.68h3.2v3.59a7.26,7.26,0,0,1-.34,2.53,2.22,2.22,0,0,1-1.14,1.26,5.26,5.26,0,0,1-2.2.37Z"/><path class="cls-1" d="M410.25,240.2a2.42,2.42,0,0,1-1.43-1.56,11.58,11.58,0,0,1-.38-3.43v-1.16h3.14v.9a8.53,8.53,0,0,0,.15,1.9,1.15,1.15,0,0,0,.56.79,3,3,0,0,0,1.3.21H414a3.12,3.12,0,0,0,1.28-.2,1.06,1.06,0,0,0,.57-.74,7.38,7.38,0,0,0,.15-1.75v-.81a3.65,3.65,0,0,0-.24-1.5,1.84,1.84,0,0,0-.91-.84,11.48,11.48,0,0,0-2.11-.69,8.27,8.27,0,0,1-2.59-1.07,3.34,3.34,0,0,1-1.28-1.71,9,9,0,0,1-.38-2.9V225a8.31,8.31,0,0,1,.45-3,2.88,2.88,0,0,1,1.47-1.59,6.79,6.79,0,0,1,2.84-.48h.6a8.59,8.59,0,0,1,3.2.45,2.49,2.49,0,0,1,1.42,1.51,10.16,10.16,0,0,1,.38,3.19v1h-3.09v-.84a6.34,6.34,0,0,0-.15-1.59,1.21,1.21,0,0,0-.52-.76,2.22,2.22,0,0,0-1.12-.22h-.42a2.55,2.55,0,0,0-1.11.19,1.08,1.08,0,0,0-.54.72,6,6,0,0,0-.15,1.54v.57a3.76,3.76,0,0,0,.21,1.42,1.81,1.81,0,0,0,.81.84,8,8,0,0,0,1.89.67,10.47,10.47,0,0,1,2.85,1.09,3.33,3.33,0,0,1,1.37,1.63,8.55,8.55,0,0,1,.38,2.85v.75a11.45,11.45,0,0,1-.43,3.63,2.74,2.74,0,0,1-1.48,1.68,8.15,8.15,0,0,1-3.14.46h-.6A9.35,9.35,0,0,1,410.25,240.2Z"/><path class="cls-1" d="M426.43,240.42l3.83-20.35h5.38l3.89,20.35h-3.62l-.74-4.43h-4.55l-.75,4.43Zm4.49-7.09h3.92L433,222.62h-.15Z"/><path class="cls-1" d="M447.23,240.42V220.07h3.5v17.57h4.76v2.78Z"/><path class="cls-1" d="M463.77,240.42V222.86h-3.56v-2.79h10.63v2.79h-3.56v17.56Z"/><path class="cls-1" d="M476.19,240.42,480,220.07h5.39l3.89,20.35h-3.62l-.75-4.43h-4.55l-.75,4.43Zm4.49-7.09h3.92l-1.85-10.71h-.15Z"/><path class="cls-1" d="M496.33,242.79a2.42,2.42,0,0,0,1-.17,1,1,0,0,0,.49-.54A3.17,3.17,0,0,0,498,241v-.54h-1.17v-3.68H500v3.59a7.26,7.26,0,0,1-.34,2.53,2.22,2.22,0,0,1-1.14,1.26,5.26,5.26,0,0,1-2.2.37Z"/><path class="cls-1" d="M519.11,240.42l3.83-20.35h5.38l3.89,20.35h-3.62l-.74-4.43H523.3l-.75,4.43Zm4.49-7.09h3.92l-1.86-10.71h-.15Z"/><path class="cls-1" d="M539.9,220.07h4.94a12.06,12.06,0,0,1,3.73.42,2.52,2.52,0,0,1,1.61,1.57,11,11,0,0,1,.44,3.61v.78a12,12,0,0,1-.23,2.59,3,3,0,0,1-.74,1.48,2.68,2.68,0,0,1-1.4.68v.09a2.82,2.82,0,0,1,1.52.74,3,3,0,0,1,.67,1.61,21.38,21.38,0,0,1,.18,3.22v3.56h-3.44V237a14.22,14.22,0,0,0-.18-2.71,1.52,1.52,0,0,0-.68-1.09,3.57,3.57,0,0,0-1.63-.27h-1.37v7.51H539.9Zm5.33,10.24a2.28,2.28,0,0,0,1.21-.27,1.43,1.43,0,0,0,.6-.88,7.16,7.16,0,0,0,.17-1.76v-1.58a7.18,7.18,0,0,0-.2-2,1.21,1.21,0,0,0-.73-.82,5.21,5.21,0,0,0-1.74-.21h-1.22v7.51Z"/><path class="cls-1" d="M561.09,240a3.27,3.27,0,0,1-1.54-2.25,23.14,23.14,0,0,1-.4-5.1v-5.09a21.21,21.21,0,0,1,.4-4.84,3.31,3.31,0,0,1,1.59-2.23,7.86,7.86,0,0,1,3.63-.65h.3a8.11,8.11,0,0,1,3.39.54,2.79,2.79,0,0,1,1.48,1.71,12,12,0,0,1,.37,3.44v.54h-3.38v-.72a6.56,6.56,0,0,0-.15-1.59,1.4,1.4,0,0,0-.55-.83,2.09,2.09,0,0,0-1.16-.27h-.3a2.18,2.18,0,0,0-1.34.33,1.92,1.92,0,0,0-.57,1.24,20.06,20.06,0,0,0-.15,2.92v5.89a22.87,22.87,0,0,0,.15,3.16,1.87,1.87,0,0,0,.55,1.24,2.34,2.34,0,0,0,1.36.3h.3a2.85,2.85,0,0,0,1.35-.24,1.3,1.3,0,0,0,.57-.91,11.15,11.15,0,0,0,.15-2.17v-1.62H564.8V230h5.6v3.59a18.64,18.64,0,0,1-.4,4.58,2.83,2.83,0,0,1-1.5,1.94,8.8,8.8,0,0,1-3.49.51h-.3A8,8,0,0,1,561.09,240Z"/><path class="cls-1" d="M579.05,240.42V220.07h8.83v2.76h-5.33v5.77h4.88v2.63h-4.88v6.41h5.51v2.78Z"/><path class="cls-1" d="M596.19,240.42V220.07h5.15l4.55,17.18H606l-.21-17.18h3.11v20.35h-5l-4.58-17.26h-.15l.15,17.26Z"/><path class="cls-1" d="M620.2,240.42V222.86h-3.57v-2.79h10.63v2.79H623.7v17.56Z"/><path class="cls-1" d="M635,240.42V220.07h3.5v20.35Z"/><path class="cls-1" d="M647.52,240.42V220.07h5.14l4.55,17.18h.12l-.21-17.18h3.12v20.35h-5l-4.58-17.26h-.15l.15,17.26Z"/><path class="cls-1" d="M667.93,240.42l3.83-20.35h5.38L681,240.42h-3.62l-.74-4.43h-4.55l-.75,4.43Zm4.49-7.09h3.92l-1.86-10.71h-.15Z"/><path class="cls-1" d="M870.53,201.42a1.94,1.94,0,0,1-1.14-1.07,5.66,5.66,0,0,1-.35-2.24v-.54a8.11,8.11,0,0,1,.2-2,2.29,2.29,0,0,1,.6-1.13,2.17,2.17,0,0,1,1.11-.51v0a2.45,2.45,0,0,1-1.08-.45,1.79,1.79,0,0,1-.57-1,7.49,7.49,0,0,1-.17-1.79v-.54a5.46,5.46,0,0,1,.33-2.15,1.91,1.91,0,0,1,1.1-1.06,6.5,6.5,0,0,1,2.23-.3h.37a6.36,6.36,0,0,1,2.22.3,1.94,1.94,0,0,1,1.1,1.06,5.68,5.68,0,0,1,.32,2.15v.54a7.49,7.49,0,0,1-.17,1.79,1.83,1.83,0,0,1-.55,1,2.4,2.4,0,0,1-1.08.45v0a2.2,2.2,0,0,1,1.12.51,2.29,2.29,0,0,1,.6,1.13,8.18,8.18,0,0,1,.19,2v.54a5.66,5.66,0,0,1-.35,2.24,2,2,0,0,1-1.13,1.07,7,7,0,0,1-2.27.29h-.37A7,7,0,0,1,870.53,201.42Zm2.52-1.68a2.21,2.21,0,0,0,1-.16.8.8,0,0,0,.41-.56,5.78,5.78,0,0,0,.11-1.32v-.76a5.86,5.86,0,0,0-.11-1.31.82.82,0,0,0-.42-.58,2.23,2.23,0,0,0-1-.17h-.15a2.15,2.15,0,0,0-1,.17.86.86,0,0,0-.43.58,6,6,0,0,0-.1,1.31v.76a5.92,5.92,0,0,0,.1,1.32.82.82,0,0,0,.43.56,2.17,2.17,0,0,0,1,.16Zm0-6.74a2.43,2.43,0,0,0,1-.14.83.83,0,0,0,.4-.53,5.22,5.22,0,0,0,.11-1.24v-.61a5.38,5.38,0,0,0-.11-1.25.89.89,0,0,0-.4-.57,2.18,2.18,0,0,0-.93-.15h-.19a2.18,2.18,0,0,0-.93.15.84.84,0,0,0-.41.57,4.87,4.87,0,0,0-.11,1.25v.61a4.74,4.74,0,0,0,.11,1.24.77.77,0,0,0,.4.53,2.42,2.42,0,0,0,1,.14Z"/><path class="cls-1" d="M884.59,201.33a2,2,0,0,1-1-1.25,9.17,9.17,0,0,1-.27-2.58v-.36h2.17v.3a7.13,7.13,0,0,0,.1,1.46.79.79,0,0,0,.39.6,2.21,2.21,0,0,0,1,.15h.28a1.79,1.79,0,0,0,.92-.18,1,1,0,0,0,.39-.69,8.85,8.85,0,0,0,.1-1.62v-.78a10.45,10.45,0,0,0-.1-1.78.9.9,0,0,0-.38-.68,2,2,0,0,0-1-.16H887a2.36,2.36,0,0,0-.8.1.8.8,0,0,0-.42.39,3.1,3.1,0,0,0-.19.83h-2.21v-8.26h7.32v2h-5.05v4h.05q.48-1,2.16-1h.29a3.69,3.69,0,0,1,1.73.33,1.88,1.88,0,0,1,.88,1.17,8.45,8.45,0,0,1,.27,2.44v1.48a9,9,0,0,1-.35,2.84,2.19,2.19,0,0,1-1.15,1.34,5.63,5.63,0,0,1-2.32.37h-.36A5.25,5.25,0,0,1,884.59,201.33Z"/><path class="cls-1" d="M53.2,201.56V189.34h0l-1.93,3.18-1.49-1.15,3-4.55h3v14.74Z"/><path class="cls-1" d="M64.43,201.35a1.87,1.87,0,0,1-1-1.19,9.39,9.39,0,0,1-.26-2.55v-.41h2.19v.33a6.4,6.4,0,0,0,.1,1.36.83.83,0,0,0,.39.6,2,2,0,0,0,.94.16H67a1.71,1.71,0,0,0,1-.21,1.29,1.29,0,0,0,.39-.88,20,20,0,0,0,.1-2.33v-1.61h0a1.68,1.68,0,0,1-.76.91,2.61,2.61,0,0,1-1.34.31H66a3.6,3.6,0,0,1-1.78-.37,2.14,2.14,0,0,1-.91-1.23,8,8,0,0,1-.28-2.41v-.89a7.82,7.82,0,0,1,.33-2.56,2.35,2.35,0,0,1,1.14-1.31,5.18,5.18,0,0,1,2.28-.4h.41a4.7,4.7,0,0,1,2.3.45,2.33,2.33,0,0,1,1.07,1.45,11.15,11.15,0,0,1,.29,2.89v4.46a16.73,16.73,0,0,1-.3,3.72,2.47,2.47,0,0,1-1.09,1.64,5.24,5.24,0,0,1-2.4.43H66.7A5.43,5.43,0,0,1,64.43,201.35Zm2.51-7.46a1.87,1.87,0,0,0,.92-.18,1,1,0,0,0,.45-.65,6.12,6.12,0,0,0,.13-1.43v-.43a9.24,9.24,0,0,0-.11-1.68.94.94,0,0,0-.41-.68,2,2,0,0,0-1-.18h-.13a2.1,2.1,0,0,0-1,.17.91.91,0,0,0-.42.64,8.11,8.11,0,0,0-.1,1.56v.43a8.57,8.57,0,0,0,.1,1.58,1,1,0,0,0,.42.67,2,2,0,0,0,1,.18Z"/></g></g></svg>